<?xml version="1.0" standalone="no"?>
<!DOCTYPE svg PUBLIC "-//W3C//DTD SVG 20010904//EN"
 "http://www.w3.org/TR/2001/REC-SVG-20010904/DTD/svg10.dtd">
<svg version="1.0" xmlns="http://www.w3.org/2000/svg"
 width="334.000000pt" height="101.000000pt" viewBox="0 0 334.000000 101.000000"
 preserveAspectRatio="xMidYMid meet">

<g transform="translate(0.000000,101.000000) scale(0.100000,-0.100000)"
fill="#000000" stroke="none">
<path d="M252 762 c-46 -5 -71 -47 -67 -116 1 -28 3 -72 4 -97 1 -44 3 -48 54
-80 l52 -34 3 -63 c3 -62 -10 -98 -29 -86 -5 3 -9 32 -9 65 0 56 -2 60 -32 79
-18 11 -36 20 -40 20 -5 0 -8 -42 -8 -94 0 -79 3 -97 21 -120 17 -22 28 -26
74 -26 47 0 56 3 79 31 24 28 26 38 26 131 0 110 0 109 -89 176 -27 20 -31 30
-31 70 0 26 4 53 9 61 16 24 31 1 31 -48 0 -49 -1 -48 63 -79 4 -2 7 34 7 80
0 117 -20 139 -118 130z"/>
<path d="M435 745 l-25 -24 0 -234 0 -234 24 -22 c21 -20 30 -22 80 -16 75 10
86 30 86 155 0 49 -2 90 -4 90 -3 0 -21 -10 -41 -21 -35 -21 -36 -24 -35 -73
1 -28 1 -57 1 -63 -1 -15 -31 -18 -31 -3 0 6 -1 71 -1 145 0 263 -1 247 19
243 16 -3 18 -11 21 -79 1 -24 10 -32 65 -57 4 -3 6 37 5 88 -4 82 -6 94 -28
111 -35 29 -105 26 -136 -6z"/>
<path d="M634 754 c8 -22 8 -506 0 -528 -5 -13 2 -16 42 -16 l49 0 -4 126 c-3
118 -2 126 15 122 17 -3 19 -14 19 -125 l0 -122 100 0 100 0 -3 49 c-4 46 -2
50 18 50 21 0 22 -4 18 -50 l-5 -50 50 0 c41 0 48 3 43 16 -7 19 -35 357 -39
468 l-2 78 -50 -6 c-27 -3 -57 -6 -65 -6 -12 0 -15 -21 -17 -118 -3 -126 -27
-399 -36 -408 -19 -19 -27 17 -27 115 0 76 -4 113 -14 126 -12 16 -12 22 0 41
10 15 14 49 13 117 -2 129 -9 137 -125 137 -76 0 -85 -2 -80 -16z m124 -142
c3 -77 2 -82 -18 -82 -18 0 -20 6 -20 78 0 43 3 82 7 86 19 18 28 -7 31 -82z
m222 -161 c0 -27 3 -56 6 -65 4 -11 0 -16 -12 -16 -17 0 -19 7 -16 65 4 76 22
89 22 16z"/>
<path d="M1107 763 c-4 -3 -7 -60 -7 -125 0 -123 4 -133 43 -104 13 10 17 28
17 85 0 47 4 71 12 71 15 0 4 -429 -12 -459 -10 -20 -8 -21 47 -21 l58 0 -3
240 c-2 163 0 240 7 240 7 0 11 -29 11 -75 0 -73 1 -75 30 -90 l30 -16 0 131
0 130 -113 0 c-63 0 -117 -3 -120 -7z"/>
<path d="M1385 745 c-25 -24 -25 -27 -26 -207 -2 -267 -1 -279 25 -306 21 -22
29 -23 80 -17 75 10 86 30 86 155 0 49 -2 90 -4 90 -3 0 -21 -9 -40 -21 -35
-21 -36 -22 -36 -86 0 -56 -2 -64 -17 -61 -16 3 -17 18 -16 148 1 256 1 252
21 248 16 -3 18 -11 21 -79 1 -24 10 -32 65 -57 4 -3 6 37 5 88 -4 82 -6 94
-28 111 -35 29 -105 26 -136 -6z"/>
<path d="M1590 750 c11 -20 11 -487 0 -520 -4 -12 6 -16 48 -18 51 -3 53 -2
47 19 -4 12 -7 69 -7 127 0 101 6 121 35 122 8 0 6 -223 -3 -250 -4 -12 4 -15
40 -13 25 1 48 2 51 2 4 1 3 20 -3 44 -9 42 -2 464 9 492 4 12 -6 15 -51 15
-54 0 -56 -1 -46 -20 6 -11 10 -60 8 -112 -3 -81 -5 -93 -21 -96 -18 -4 -19 4
-15 112 l3 116 -53 0 c-50 0 -52 -1 -42 -20z m60 -125 c0 -8 -4 -15 -9 -15
-13 0 -22 16 -14 24 11 11 23 6 23 -9z"/>
<path d="M2029 757 c-35 -27 -39 -53 -39 -276 0 -215 1 -221 23 -246 21 -25
26 -27 80 -20 43 6 62 13 72 29 12 19 20 114 16 189 l-1 29 -32 -21 c-30 -18
-33 -25 -38 -83 -4 -50 -9 -64 -23 -66 -16 -3 -17 10 -15 195 3 179 5 198 21
201 14 3 17 -4 17 -47 0 -47 3 -53 32 -71 18 -10 34 -18 35 -16 2 2 4 40 5 85
0 71 -2 85 -21 105 -24 26 -105 34 -132 13z"/>
<path d="M2219 756 c9 -11 11 -86 9 -280 l-3 -266 45 0 45 0 -3 126 c-3 118
-2 126 15 122 16 -3 18 -15 17 -124 l-1 -120 97 -1 96 -2 0 47 c-1 35 3 47 15
50 20 4 32 -53 17 -81 -8 -15 -3 -17 48 -17 50 0 55 2 49 18 -11 26 -47 451
-42 498 l4 42 -41 -2 c-22 -1 -56 -3 -75 -4 -27 -2 -31 -5 -22 -16 8 -10 6
-75 -9 -257 -11 -134 -23 -251 -26 -259 -4 -12 -8 -12 -20 4 -10 14 -14 50
-14 126 0 68 -4 110 -12 118 -9 9 -7 19 7 45 14 27 17 49 13 120 -7 120 -14
127 -131 127 -76 0 -88 -2 -78 -14z m120 -70 c7 -9 11 -41 9 -82 -2 -56 -6
-69 -20 -72 -16 -3 -18 6 -18 82 0 85 6 100 29 72z m230 -283 c1 -24 -3 -33
-15 -33 -14 0 -15 7 -10 38 3 20 6 55 7 77 l2 40 8 -45 c4 -25 8 -60 8 -77z"/>
<path d="M2698 508 c2 -172 -1 -265 -8 -272 -20 -20 -10 -26 43 -26 l52 0 -3
131 -4 131 36 -4 36 -4 0 41 c0 41 0 41 -35 37 l-35 -4 0 81 c0 74 2 81 20 81
18 0 20 -7 20 -55 0 -50 2 -56 30 -70 16 -8 31 -15 35 -15 3 0 5 47 5 105 l0
105 -97 0 -98 0 3 -262z"/>
<path d="M2927 763 c-4 -3 -7 -60 -7 -125 0 -123 4 -133 43 -104 13 10 17 28
17 85 0 45 4 71 11 71 16 0 8 -427 -9 -457 -13 -23 -12 -23 55 -23 52 0 64 3
55 12 -15 15 -17 468 -2 468 6 0 10 -31 10 -74 0 -67 2 -75 25 -90 13 -9 27
-16 30 -16 3 0 5 59 5 130 l0 130 -113 0 c-63 0 -117 -3 -120 -7z"/>
</g>
</svg>
